<mxfile host="65bd71144e">
    <diagram id="MHgG_1ywKcmWRNOXNOMy" name="Game Logic Heirarchy">
        <mxGraphModel dx="866" dy="618" grid="1" gridSize="10" guides="1" tooltips="1" connect="1" arrows="1" fold="1" page="1" pageScale="1" pageWidth="850" pageHeight="1100" math="0" shadow="0">
            <root>
                <mxCell id="0"/>
                <mxCell id="1" parent="0"/>
                <mxCell id="22" value="" style="edgeStyle=none;html=1;shape=link;entryX=0;entryY=0.5;entryDx=0;entryDy=0;" parent="1" target="23" edge="1">
                    <mxGeometry relative="1" as="geometry">
                        <mxPoint x="830" y="40" as="sourcePoint"/>
                        <mxPoint x="1170" y="40" as="targetPoint"/>
                    </mxGeometry>
                </mxCell>
                <mxCell id="2" value="Universe" style="shape=process;whiteSpace=wrap;html=1;backgroundOutline=1;size=0.024096385542168676;fontSize=30;fontFamily=Courier New;" parent="1" vertex="1">
                    <mxGeometry x="10" y="10" width="830" height="60" as="geometry"/>
                </mxCell>
                <mxCell id="3" value="Wormholes" style="swimlane;fontFamily=Courier New;fontSize=19;startSize=30;" parent="1" vertex="1">
                    <mxGeometry x="10" y="70" width="200" height="40" as="geometry"/>
                </mxCell>
                <mxCell id="17" style="edgeStyle=none;html=1;exitX=0.5;exitY=1;exitDx=0;exitDy=0;fontFamily=Courier New;fontSize=19;entryX=0.5;entryY=0;entryDx=0;entryDy=0;" parent="1" source="8" target="9" edge="1">
                    <mxGeometry relative="1" as="geometry">
                        <mxPoint x="520" y="130" as="targetPoint"/>
                        <Array as="points">
                            <mxPoint x="500" y="120"/>
                            <mxPoint x="370" y="120"/>
                        </Array>
                    </mxGeometry>
                </mxCell>
                <mxCell id="8" value="Planets" style="swimlane;fontFamily=Courier New;fontSize=19;startSize=30;" parent="1" vertex="1">
                    <mxGeometry x="210" y="70" width="630" height="40" as="geometry"/>
                </mxCell>
                <mxCell id="9" value="Planet Object" style="swimlane;fontStyle=0;childLayout=stackLayout;horizontal=1;startSize=26;fillColor=none;horizontalStack=0;resizeParent=1;resizeParentMax=0;resizeLast=0;collapsible=1;marginBottom=0;html=1;fontFamily=Courier New;fontSize=19;" parent="1" vertex="1">
                    <mxGeometry x="10" y="140" width="690" height="130" as="geometry"/>
                </mxCell>
                <mxCell id="10" value="Name, X, Y, Size" style="text;strokeColor=none;fillColor=none;align=left;verticalAlign=top;spacingLeft=4;spacingRight=4;overflow=hidden;rotatable=0;points=[[0,0.5],[1,0.5]];portConstraint=eastwest;whiteSpace=wrap;html=1;fontFamily=Courier New;fontSize=19;" parent="9" vertex="1">
                    <mxGeometry y="26" width="690" height="26" as="geometry"/>
                </mxCell>
                <mxCell id="11" value="Tech, Social Pressure, Special Resource" style="text;strokeColor=none;fillColor=none;align=left;verticalAlign=top;spacingLeft=4;spacingRight=4;overflow=hidden;rotatable=0;points=[[0,0.5],[1,0.5]];portConstraint=eastwest;whiteSpace=wrap;html=1;fontFamily=Courier New;fontSize=19;" parent="9" vertex="1">
                    <mxGeometry y="52" width="690" height="26" as="geometry"/>
                </mxCell>
                <mxCell id="12" value="Government" style="text;strokeColor=none;fillColor=none;align=left;verticalAlign=top;spacingLeft=4;spacingRight=4;overflow=hidden;rotatable=0;points=[[0,0.5],[1,0.5]];portConstraint=eastwest;whiteSpace=wrap;html=1;fontFamily=Courier New;fontSize=19;" parent="9" vertex="1">
                    <mxGeometry y="78" width="690" height="26" as="geometry"/>
                </mxCell>
                <mxCell id="20" value="Trade Goods" style="text;strokeColor=none;fillColor=none;align=left;verticalAlign=top;spacingLeft=4;spacingRight=4;overflow=hidden;rotatable=0;points=[[0,0.5],[1,0.5]];portConstraint=eastwest;whiteSpace=wrap;html=1;fontFamily=Courier New;fontSize=19;" parent="9" vertex="1">
                    <mxGeometry y="104" width="690" height="26" as="geometry"/>
                </mxCell>
                <mxCell id="13" value="Static" style="whiteSpace=wrap;html=1;rounded=1;arcSize=50;align=center;verticalAlign=middle;strokeWidth=1;autosize=1;spacing=4;treeFolding=1;treeMoving=1;newEdgeStyle={&quot;edgeStyle&quot;:&quot;entityRelationEdgeStyle&quot;,&quot;startArrow&quot;:&quot;none&quot;,&quot;endArrow&quot;:&quot;none&quot;,&quot;segment&quot;:10,&quot;curved&quot;:1,&quot;sourcePerimeterSpacing&quot;:0,&quot;targetPerimeterSpacing&quot;:0};fontFamily=Courier New;fontSize=19;" parent="1" vertex="1">
                    <mxGeometry x="730" y="130" width="110" height="30" as="geometry"/>
                </mxCell>
                <mxCell id="14" value="" style="edgeStyle=entityRelationEdgeStyle;startArrow=none;endArrow=none;segment=10;curved=1;sourcePerimeterSpacing=0;targetPerimeterSpacing=0;fontFamily=Courier New;fontSize=19;exitX=1;exitY=0.5;exitDx=0;exitDy=0;" parent="1" source="10" target="13" edge="1">
                    <mxGeometry relative="1" as="geometry">
                        <mxPoint x="695" y="177" as="sourcePoint"/>
                    </mxGeometry>
                </mxCell>
                <mxCell id="16" value="" style="edgeStyle=entityRelationEdgeStyle;html=1;startArrow=none;endArrow=none;segment=10;curved=1;sourcePerimeterSpacing=0;targetPerimeterSpacing=0;fontFamily=Courier New;fontSize=19;entryX=1;entryY=0.5;entryDx=0;entryDy=0;" parent="1" source="15" target="11" edge="1">
                    <mxGeometry relative="1" as="geometry"/>
                </mxCell>
                <mxCell id="15" value="Var Int" style="whiteSpace=wrap;html=1;rounded=1;arcSize=50;align=center;verticalAlign=middle;strokeWidth=1;autosize=1;spacing=4;treeFolding=1;treeMoving=1;newEdgeStyle={&quot;edgeStyle&quot;:&quot;entityRelationEdgeStyle&quot;,&quot;startArrow&quot;:&quot;none&quot;,&quot;endArrow&quot;:&quot;none&quot;,&quot;segment&quot;:10,&quot;curved&quot;:1,&quot;sourcePerimeterSpacing&quot;:0,&quot;targetPerimeterSpacing&quot;:0};fontFamily=Courier New;fontSize=19;" parent="1" vertex="1">
                    <mxGeometry x="730" y="170" width="110" height="32" as="geometry"/>
                </mxCell>
                <mxCell id="18" value="Government / Political System Object" style="swimlane;fontFamily=Courier New;fontSize=19;" parent="1" vertex="1">
                    <mxGeometry x="400" y="330" width="440" height="200" as="geometry"/>
                </mxCell>
                <mxCell id="23" value="Commander" style="shape=process;whiteSpace=wrap;html=1;backgroundOutline=1;size=0.03571428571428571;fontSize=24;" parent="1" vertex="1">
                    <mxGeometry x="930" y="10" width="560" height="60" as="geometry"/>
                </mxCell>
                <mxCell id="35" value="Warp Actions" style="text;strokeColor=default;fillColor=none;html=1;fontSize=24;fontStyle=1;verticalAlign=middle;align=center;dashed=1;dashPattern=12 12;strokeWidth=3;" parent="1" vertex="1">
                    <mxGeometry x="860" y="1110" width="830" height="50" as="geometry"/>
                </mxCell>
                <mxCell id="40" value="Change current system" style="rounded=0;whiteSpace=wrap;html=1;fontSize=24;" parent="1" vertex="1">
                    <mxGeometry x="1140" y="1340" width="180" height="100" as="geometry"/>
                </mxCell>
                <mxCell id="47" value="Update insurance claim" style="rounded=0;whiteSpace=wrap;html=1;fontSize=24;" parent="1" vertex="1">
                    <mxGeometry x="890" y="1680" width="180" height="100" as="geometry"/>
                </mxCell>
                <mxCell id="48" value="Charge for insurance" style="rounded=0;whiteSpace=wrap;html=1;fontSize=24;" parent="1" vertex="1">
                    <mxGeometry x="880" y="1570" width="180" height="100" as="geometry"/>
                </mxCell>
                <mxCell id="49" value="Subtract fuel from tank" style="rounded=0;whiteSpace=wrap;html=1;fontSize=24;" parent="1" vertex="1">
                    <mxGeometry x="1270" y="1510" width="180" height="100" as="geometry"/>
                </mxCell>
                <mxCell id="41" value="Charge loan interest" style="rounded=0;whiteSpace=wrap;html=1;fontSize=24;" parent="1" vertex="1">
                    <mxGeometry x="970" y="1290" width="150" height="90" as="geometry"/>
                </mxCell>
                <mxCell id="42" value="Add day played" style="rounded=0;whiteSpace=wrap;html=1;fontSize=24;" parent="1" vertex="1">
                    <mxGeometry x="975" y="1410" width="145" height="80" as="geometry"/>
                </mxCell>
                <mxCell id="43" value="Update all planets prices" style="rounded=0;whiteSpace=wrap;html=1;fontSize=24;" parent="1" vertex="1">
                    <mxGeometry x="1070" y="1190" width="180" height="90" as="geometry"/>
                </mxCell>
                <mxCell id="44" value="Update all planet stocks" style="rounded=0;whiteSpace=wrap;html=1;fontSize=24;" parent="1" vertex="1">
                    <mxGeometry x="1325" y="1370" width="180" height="100" as="geometry"/>
                </mxCell>
                <mxCell id="45" value="Update planet events/changes" style="rounded=0;whiteSpace=wrap;html=1;fontSize=24;" parent="1" vertex="1">
                    <mxGeometry x="1280" y="1230" width="200" height="100" as="geometry"/>
                </mxCell>
                <mxCell id="50" style="edgeStyle=none;html=1;exitX=1;exitY=0.5;exitDx=0;exitDy=0;entryX=0.5;entryY=0;entryDx=0;entryDy=0;fontSize=24;" parent="1" source="12" target="18" edge="1">
                    <mxGeometry relative="1" as="geometry">
                        <Array as="points">
                            <mxPoint x="810" y="231"/>
                            <mxPoint x="810" y="310"/>
                            <mxPoint x="620" y="310"/>
                        </Array>
                    </mxGeometry>
                </mxCell>
                <mxCell id="51" style="edgeStyle=none;html=1;exitX=1;exitY=0.5;exitDx=0;exitDy=0;fontSize=24;" parent="1" source="20" edge="1">
                    <mxGeometry relative="1" as="geometry">
                        <mxPoint x="90" y="320" as="targetPoint"/>
                        <Array as="points">
                            <mxPoint x="780" y="257"/>
                            <mxPoint x="780" y="290"/>
                            <mxPoint x="90" y="290"/>
                        </Array>
                    </mxGeometry>
                </mxCell>
            </root>
        </mxGraphModel>
    </diagram>
    <diagram id="iz4vHOTl2idNePC7w-vi" name="TKinter Loop Ideas">
        <mxGraphModel dx="866" dy="618" grid="1" gridSize="10" guides="1" tooltips="1" connect="1" arrows="1" fold="1" page="1" pageScale="1" pageWidth="850" pageHeight="1100" math="0" shadow="0">
            <root>
                <mxCell id="0"/>
                <mxCell id="1" parent="0"/>
                <mxCell id="EO7PyRb0VE1PsmMynTPy-1" value="&lt;h1&gt;Main Loop Thing?&lt;/h1&gt;&lt;div&gt;Need a way to hand off the drawing of widgets depending on which screen should be presented&lt;/div&gt;&lt;div&gt;&lt;br&gt;&lt;/div&gt;" style="text;html=1;strokeColor=none;fillColor=none;spacing=5;spacingTop=-20;whiteSpace=wrap;overflow=hidden;rounded=0;" vertex="1" parent="1">
                    <mxGeometry x="10" y="10" width="260" height="100" as="geometry"/>
                </mxCell>
                <mxCell id="EO7PyRb0VE1PsmMynTPy-5" style="edgeStyle=none;html=1;exitX=1;exitY=0.5;exitDx=0;exitDy=0;entryX=0;entryY=0.5;entryDx=0;entryDy=0;rounded=0;" edge="1" parent="1" source="EO7PyRb0VE1PsmMynTPy-2" target="EO7PyRb0VE1PsmMynTPy-4">
                    <mxGeometry relative="1" as="geometry"/>
                </mxCell>
                <mxCell id="EO7PyRb0VE1PsmMynTPy-2" value="Launch app" style="rounded=0;whiteSpace=wrap;html=1;" vertex="1" parent="1">
                    <mxGeometry x="40" y="125" width="90" height="30" as="geometry"/>
                </mxCell>
                <mxCell id="EO7PyRb0VE1PsmMynTPy-11" style="edgeStyle=none;html=1;exitX=0.5;exitY=1;exitDx=0;exitDy=0;entryX=0.5;entryY=0;entryDx=0;entryDy=0;rounded=0;" edge="1" parent="1" source="EO7PyRb0VE1PsmMynTPy-3" target="EO7PyRb0VE1PsmMynTPy-6">
                    <mxGeometry relative="1" as="geometry"/>
                </mxCell>
                <mxCell id="EO7PyRb0VE1PsmMynTPy-3" value="Splash" style="rounded=0;whiteSpace=wrap;html=1;" vertex="1" parent="1">
                    <mxGeometry x="365" y="200" width="250" height="30" as="geometry"/>
                </mxCell>
                <mxCell id="EO7PyRb0VE1PsmMynTPy-31" style="edgeStyle=none;html=1;exitX=0;exitY=0.5;exitDx=0;exitDy=0;entryX=0.5;entryY=0;entryDx=0;entryDy=0;startArrow=none;startFill=0;endArrow=classic;endFill=1;" edge="1" parent="1" source="EO7PyRb0VE1PsmMynTPy-6" target="EO7PyRb0VE1PsmMynTPy-12">
                    <mxGeometry relative="1" as="geometry">
                        <Array as="points">
                            <mxPoint x="140" y="265"/>
                        </Array>
                    </mxGeometry>
                </mxCell>
                <mxCell id="EO7PyRb0VE1PsmMynTPy-6" value="Create Char" style="rounded=0;whiteSpace=wrap;html=1;" vertex="1" parent="1">
                    <mxGeometry x="365" y="250" width="250" height="30" as="geometry"/>
                </mxCell>
                <mxCell id="EO7PyRb0VE1PsmMynTPy-10" style="edgeStyle=none;html=1;exitX=0.5;exitY=1;exitDx=0;exitDy=0;entryX=0.5;entryY=0;entryDx=0;entryDy=0;rounded=0;" edge="1" parent="1" source="EO7PyRb0VE1PsmMynTPy-4" target="EO7PyRb0VE1PsmMynTPy-3">
                    <mxGeometry relative="1" as="geometry"/>
                </mxCell>
                <mxCell id="EO7PyRb0VE1PsmMynTPy-4" value="Build Main Window" style="shape=process;whiteSpace=wrap;html=1;backgroundOutline=1;size=0.03125;rounded=0;" vertex="1" parent="1">
                    <mxGeometry x="170" y="110" width="640" height="60" as="geometry"/>
                </mxCell>
                <mxCell id="EO7PyRb0VE1PsmMynTPy-8" value="States&lt;br&gt;&lt;br&gt;1&lt;br&gt;2&lt;br&gt;3&lt;br&gt;4&lt;br&gt;5&lt;br&gt;6&lt;br&gt;7&lt;br&gt;...&lt;br&gt;99" style="shape=cylinder3;whiteSpace=wrap;html=1;boundedLbl=1;backgroundOutline=1;size=15;rounded=0;" vertex="1" parent="1">
                    <mxGeometry x="170" y="370" width="60" height="210" as="geometry"/>
                </mxCell>
                <mxCell id="EO7PyRb0VE1PsmMynTPy-9" value="Screen Object" style="swimlane;whiteSpace=wrap;html=1;rounded=0;" vertex="1" parent="1">
                    <mxGeometry x="370" y="320" width="440" height="260" as="geometry">
                        <mxRectangle x="360" y="320" width="120" height="30" as="alternateBounds"/>
                    </mxGeometry>
                </mxCell>
                <mxCell id="EO7PyRb0VE1PsmMynTPy-7" value="Build widgets" style="rounded=0;whiteSpace=wrap;html=1;" vertex="1" parent="EO7PyRb0VE1PsmMynTPy-9">
                    <mxGeometry x="30" y="50" width="90" height="30" as="geometry"/>
                </mxCell>
                <mxCell id="EO7PyRb0VE1PsmMynTPy-14" value="Raise new gamestate" style="rounded=0;whiteSpace=wrap;html=1;" vertex="1" parent="EO7PyRb0VE1PsmMynTPy-9">
                    <mxGeometry x="350" y="230" width="90" height="30" as="geometry"/>
                </mxCell>
                <mxCell id="EO7PyRb0VE1PsmMynTPy-19" style="edgeStyle=none;html=1;exitX=0.75;exitY=1;exitDx=0;exitDy=0;entryX=0;entryY=0.5;entryDx=0;entryDy=0;" edge="1" parent="1" source="EO7PyRb0VE1PsmMynTPy-12" target="EO7PyRb0VE1PsmMynTPy-20">
                    <mxGeometry relative="1" as="geometry">
                        <mxPoint x="350" y="340" as="targetPoint"/>
                    </mxGeometry>
                </mxCell>
                <mxCell id="EO7PyRb0VE1PsmMynTPy-12" value="While loop running" style="shape=step;perimeter=stepPerimeter;whiteSpace=wrap;html=1;fixedSize=1;rounded=0;" vertex="1" parent="1">
                    <mxGeometry x="65" y="300" width="150" height="40" as="geometry"/>
                </mxCell>
                <mxCell id="EO7PyRb0VE1PsmMynTPy-15" style="edgeStyle=none;html=1;exitX=0.5;exitY=1;exitDx=0;exitDy=0;entryX=1;entryY=0.5;entryDx=0;entryDy=0;" edge="1" parent="1" source="EO7PyRb0VE1PsmMynTPy-14" target="EO7PyRb0VE1PsmMynTPy-22">
                    <mxGeometry relative="1" as="geometry">
                        <mxPoint x="200" y="680" as="targetPoint"/>
                        <Array as="points">
                            <mxPoint x="765" y="640"/>
                        </Array>
                    </mxGeometry>
                </mxCell>
                <mxCell id="EO7PyRb0VE1PsmMynTPy-21" style="edgeStyle=none;html=1;exitX=1;exitY=0.5;exitDx=0;exitDy=0;entryX=0;entryY=0.25;entryDx=0;entryDy=0;" edge="1" parent="1" source="EO7PyRb0VE1PsmMynTPy-20" target="EO7PyRb0VE1PsmMynTPy-9">
                    <mxGeometry relative="1" as="geometry"/>
                </mxCell>
                <mxCell id="EO7PyRb0VE1PsmMynTPy-20" value="Activate Screen" style="rhombus;whiteSpace=wrap;html=1;" vertex="1" parent="1">
                    <mxGeometry x="260" y="300" width="80" height="80" as="geometry"/>
                </mxCell>
                <mxCell id="EO7PyRb0VE1PsmMynTPy-23" style="html=1;exitX=0.5;exitY=0;exitDx=0;exitDy=0;entryX=0.5;entryY=1;entryDx=0;entryDy=0;entryPerimeter=0;startArrow=oval;startFill=0;endArrow=oval;endFill=1;" edge="1" parent="1" source="EO7PyRb0VE1PsmMynTPy-22" target="EO7PyRb0VE1PsmMynTPy-8">
                    <mxGeometry relative="1" as="geometry"/>
                </mxCell>
                <mxCell id="EO7PyRb0VE1PsmMynTPy-28" style="edgeStyle=none;html=1;exitX=0;exitY=0.5;exitDx=0;exitDy=0;entryX=1;entryY=0.5;entryDx=0;entryDy=0;startArrow=none;startFill=0;endArrow=classic;endFill=1;" edge="1" parent="1" source="EO7PyRb0VE1PsmMynTPy-22" target="EO7PyRb0VE1PsmMynTPy-26">
                    <mxGeometry relative="1" as="geometry"/>
                </mxCell>
                <mxCell id="EO7PyRb0VE1PsmMynTPy-22" value="Lookup state" style="rhombus;whiteSpace=wrap;html=1;" vertex="1" parent="1">
                    <mxGeometry x="160" y="600" width="80" height="80" as="geometry"/>
                </mxCell>
                <mxCell id="EO7PyRb0VE1PsmMynTPy-29" style="edgeStyle=none;html=1;exitX=0.5;exitY=0;exitDx=0;exitDy=0;entryX=0.5;entryY=1;entryDx=0;entryDy=0;startArrow=none;startFill=0;endArrow=classic;endFill=1;" edge="1" parent="1" source="EO7PyRb0VE1PsmMynTPy-26" target="EO7PyRb0VE1PsmMynTPy-27">
                    <mxGeometry relative="1" as="geometry"/>
                </mxCell>
                <mxCell id="EO7PyRb0VE1PsmMynTPy-26" value="Forget existing widgets" style="rhombus;whiteSpace=wrap;html=1;" vertex="1" parent="1">
                    <mxGeometry x="10" y="600" width="80" height="80" as="geometry"/>
                </mxCell>
                <mxCell id="EO7PyRb0VE1PsmMynTPy-30" style="edgeStyle=none;html=1;exitX=0.5;exitY=0;exitDx=0;exitDy=0;entryX=0.25;entryY=1;entryDx=0;entryDy=0;startArrow=none;startFill=0;endArrow=classic;endFill=1;" edge="1" parent="1" source="EO7PyRb0VE1PsmMynTPy-27" target="EO7PyRb0VE1PsmMynTPy-12">
                    <mxGeometry relative="1" as="geometry">
                        <Array as="points">
                            <mxPoint x="50" y="340"/>
                        </Array>
                    </mxGeometry>
                </mxCell>
                <mxCell id="EO7PyRb0VE1PsmMynTPy-27" value="Set new screen" style="rhombus;whiteSpace=wrap;html=1;" vertex="1" parent="1">
                    <mxGeometry x="10" y="380" width="80" height="80" as="geometry"/>
                </mxCell>
            </root>
        </mxGraphModel>
    </diagram>
</mxfile>